<svg width="142" height="53" viewBox="0 0 142 53" fill="none" xmlns="http://www.w3.org/2000/svg">
<path d="M42.0312 38.7734C42.0312 38.9818 41.9531 39.125 41.7969 39.2031C41.6667 39.2812 41.6406 39.4635 41.7188 39.75C41.5104 39.776 41.3281 39.8802 41.1719 40.0625C41.0156 40.2448 40.8333 40.3359 40.625 40.3359C40.4948 40.3359 40.3906 40.2708 40.3125 40.1406C40.2604 40.3229 40.1562 40.4531 40 40.5312C39.8698 40.6094 39.7266 40.6745 39.5703 40.7266C39.4141 40.7786 39.2578 40.8438 39.1016 40.9219C38.9453 41 38.8411 41.1172 38.7891 41.2734H38.5938C38.2812 41.2734 38.0339 41.4036 37.8516 41.6641C37.6953 41.9245 37.5 42.0547 37.2656 42.0547C37.1875 42.0547 37.1354 42.0417 37.1094 42.0156C36.9792 42.0417 36.9271 42.1198 36.9531 42.25C36.9792 42.4062 36.9401 42.5104 36.8359 42.5625H36.6406C35.9635 42.5625 35.2734 42.7057 34.5703 42.9922C33.8672 43.2786 33.151 43.6042 32.4219 43.9688C31.7188 44.3333 30.9896 44.6719 30.2344 44.9844C29.5052 45.3229 28.763 45.5443 28.0078 45.6484C27.8516 45.8047 27.6562 45.9219 27.4219 46C27.2135 46.1042 26.9792 46.1823 26.7188 46.2344C26.4583 46.2865 26.1979 46.3385 25.9375 46.3906C25.7031 46.4688 25.4948 46.5859 25.3125 46.7422C24.6615 46.7943 24.0104 46.9115 23.3594 47.0938C22.7083 47.276 22.0573 47.4453 21.4062 47.6016C20.7812 47.7839 20.1302 47.9271 19.4531 48.0312C18.8021 48.1615 18.138 48.2005 17.4609 48.1484C17.2526 48.3047 17.0182 48.4219 16.7578 48.5C16.5234 48.6042 16.3021 48.7344 16.0938 48.8906C15.026 48.7344 13.9583 48.6172 12.8906 48.5391C11.849 48.4609 10.8203 48.2786 9.80469 47.9922C9.80469 47.9141 9.77865 47.862 9.72656 47.8359C9.67448 47.8099 9.60938 47.7839 9.53125 47.7578C9.47917 47.7578 9.42708 47.7318 9.375 47.6797C9.32292 47.6536 9.32292 47.5885 9.375 47.4844C9.14062 47.5625 8.93229 47.6016 8.75 47.6016C8.48958 47.6016 8.22917 47.5365 7.96875 47.4062C7.73438 47.276 7.47396 47.1328 7.1875 46.9766C6.92708 46.8203 6.65365 46.6641 6.36719 46.5078C6.08073 46.3776 5.76823 46.3125 5.42969 46.3125C5.22135 46.1042 5.02604 45.8958 4.84375 45.6875C4.6875 45.4792 4.57031 45.2188 4.49219 44.9062C4.38802 44.8802 4.27083 44.8802 4.14062 44.9062C4.03646 44.9323 3.94531 44.9453 3.86719 44.9453C3.71094 44.9453 3.63281 44.8932 3.63281 44.7891C3.08594 44.3984 2.69531 43.9818 2.46094 43.5391C2.22656 43.0964 1.96615 42.5885 1.67969 42.0156C1.60156 41.8333 1.4974 41.6771 1.36719 41.5469C1.26302 41.4427 1.1849 41.3125 1.13281 41.1562C1.02865 40.8958 0.963542 40.6224 0.9375 40.3359C0.911458 40.0495 0.885417 39.776 0.859375 39.5156C0.859375 39.2292 0.820312 38.9557 0.742188 38.6953C0.690104 38.4089 0.572917 38.1484 0.390625 37.9141C0.442708 36.9245 0.546875 35.9349 0.703125 34.9453C0.885417 33.9557 1.10677 32.9661 1.36719 31.9766C1.47135 31.5339 1.58854 31.1042 1.71875 30.6875C1.84896 30.2708 1.96615 29.8411 2.07031 29.3984C2.09635 29.2422 2.13542 29.138 2.1875 29.0859C2.26562 29.0078 2.33073 28.9557 2.38281 28.9297L2.53906 28.8125C2.59115 28.7604 2.63021 28.6823 2.65625 28.5781L2.96875 27.25C3.17708 26.3906 3.45052 25.5573 3.78906 24.75C4.1276 23.9427 4.58333 23.2005 5.15625 22.5234C5.20833 21.8724 5.35156 21.2604 5.58594 20.6875C5.84635 20.0885 6.13281 19.5156 6.44531 18.9688C6.75781 18.3958 7.07031 17.8359 7.38281 17.2891C7.69531 16.7422 7.94271 16.1562 8.125 15.5312L8.08594 15.4531C8.08594 15.349 8.13802 15.2969 8.24219 15.2969C8.3724 15.2708 8.46354 15.2578 8.51562 15.2578C8.54167 14.8411 8.63281 14.4896 8.78906 14.2031C8.97135 13.8906 9.15365 13.6042 9.33594 13.3438C9.54427 13.0833 9.72656 12.8099 9.88281 12.5234C10.0651 12.2109 10.1693 11.8464 10.1953 11.4297C10.6901 11.1432 11.1068 10.7917 11.4453 10.375C11.8099 9.93229 12.1484 9.48958 12.4609 9.04688C12.7995 8.57812 13.151 8.13542 13.5156 7.71875C13.8802 7.27604 14.3229 6.92448 14.8438 6.66406C14.974 6.50781 15.013 6.28646 14.9609 6C15.7682 5.40104 16.6016 4.86719 17.4609 4.39844C18.3203 3.92969 19.1276 3.38281 19.8828 2.75781H21.2891C21.6276 2.4974 22.0052 2.36719 22.4219 2.36719C22.7344 2.36719 23.0339 2.43229 23.3203 2.5625C23.6328 2.69271 23.9193 2.84896 24.1797 3.03125C24.4661 3.1875 24.7526 3.35677 25.0391 3.53906C25.3255 3.69531 25.612 3.8125 25.8984 3.89062C26.1849 4.28125 26.3802 4.73698 26.4844 5.25781C26.6146 5.7526 26.7448 6.22135 26.875 6.66406C26.6406 7.36719 26.4974 8.09635 26.4453 8.85156C26.3932 9.58073 26.3021 10.3099 26.1719 11.0391C25.9896 11.2474 25.8333 11.4818 25.7031 11.7422C25.5729 11.9766 25.4297 12.224 25.2734 12.4844C25.1432 12.7188 25 12.9531 24.8438 13.1875C24.6875 13.3958 24.4792 13.5651 24.2188 13.6953C24.0104 14.4505 23.6849 15.0495 23.2422 15.4922C22.7995 15.9349 22.3698 16.4557 21.9531 17.0547C21.5625 17.3151 21.1458 17.4453 20.7031 17.4453C20.3385 17.4453 20.013 17.3672 19.7266 17.2109C19.4401 17.0286 19.1797 16.8073 18.9453 16.5469C18.7109 16.2604 18.5156 15.9609 18.3594 15.6484C18.2292 15.3099 18.125 14.9844 18.0469 14.6719C18.2292 14.125 18.5156 13.6562 18.9062 13.2656C19.3229 12.875 19.7396 12.4844 20.1562 12.0938C20.5729 11.7031 20.9375 11.2865 21.25 10.8438C21.5625 10.401 21.7188 9.86719 21.7188 9.24219C21.7188 9.1901 21.7057 9.13802 21.6797 9.08594C21.6797 9.03385 21.6797 8.98177 21.6797 8.92969C21.6797 8.82552 21.7188 8.73438 21.7969 8.65625C21.875 8.57812 21.9531 8.51302 22.0312 8.46094L22.2656 8.26562C22.3438 8.1875 22.3828 8.09635 22.3828 7.99219C22.3828 7.88802 22.3307 7.78385 22.2266 7.67969C21.237 7.75781 20.4818 7.92708 19.9609 8.1875C19.4661 8.44792 19.0755 8.73438 18.7891 9.04688C18.5026 9.35938 18.2422 9.67188 18.0078 9.98438C17.7995 10.2708 17.487 10.4792 17.0703 10.6094C16.9922 10.8177 16.875 11 16.7188 11.1562C16.5885 11.2865 16.4453 11.4297 16.2891 11.5859C16.1328 11.7161 15.9896 11.8724 15.8594 12.0547C15.7552 12.237 15.6901 12.4583 15.6641 12.7188H14.9609C14.8568 12.9531 14.7005 13.1875 14.4922 13.4219C14.3099 13.6302 14.1146 13.8385 13.9062 14.0469C13.724 14.2552 13.5547 14.4896 13.3984 14.75C13.2682 14.9844 13.2292 15.2448 13.2812 15.5312C12.9948 15.6354 12.7734 15.8047 12.6172 16.0391C12.487 16.2734 12.2917 16.4688 12.0312 16.625V16.8594C12.0312 17.0677 11.9922 17.263 11.9141 17.4453C11.8359 17.6276 11.8229 17.8229 11.875 18.0312C11.5625 18.3177 11.3281 18.6823 11.1719 19.125C11.0417 19.5417 10.8984 19.9323 10.7422 20.2969C10.3776 20.4792 10.1302 20.7266 10 21.0391C9.86979 21.3516 9.80469 21.7161 9.80469 22.1328C9.41406 22.5234 9.0625 22.9792 8.75 23.5C8.4375 24.0208 8.15104 24.5547 7.89062 25.1016C7.65625 25.6484 7.4349 26.2083 7.22656 26.7812C7.01823 27.3542 6.79688 27.888 6.5625 28.3828V29.5156C6.19792 29.9323 5.9375 30.4271 5.78125 31C5.65104 31.5469 5.44271 32.0417 5.15625 32.4844C5.10417 32.7708 5.07812 33.0573 5.07812 33.3438C5.10417 33.6302 5.11719 33.9167 5.11719 34.2031C5.11719 34.5156 5.09115 34.8411 5.03906 35.1797C4.98698 35.5182 4.89583 35.8307 4.76562 36.1172C4.86979 36.5078 4.94792 36.9766 5 37.5234C5.05208 38.0443 5.14323 38.5781 5.27344 39.125C5.40365 39.6458 5.58594 40.1276 5.82031 40.5703C6.05469 40.987 6.39323 41.2734 6.83594 41.4297C6.9401 42.0026 7.1875 42.4323 7.57812 42.7188C7.99479 43.0312 8.46354 43.2786 8.98438 43.4609C9.50521 43.6432 10.0391 43.7995 10.5859 43.9297C11.1328 44.0859 11.6146 44.2812 12.0312 44.5156C12.1875 44.4375 12.3698 44.3984 12.5781 44.3984C12.7865 44.3984 12.9688 44.4245 13.125 44.4766C13.3073 44.5286 13.5026 44.5807 13.7109 44.6328C14.0755 44.5807 14.5182 44.5547 15.0391 44.5547C15.5859 44.5547 16.1328 44.5286 16.6797 44.4766C17.2266 44.4505 17.7344 44.3854 18.2031 44.2812C18.6719 44.1771 19.0495 43.9818 19.3359 43.6953C19.5182 43.6953 19.6354 43.7474 19.6875 43.8516C19.7656 43.9557 19.8958 44.0078 20.0781 44.0078C20.2604 44.0078 20.5339 43.9557 20.8984 43.8516C21.263 43.7734 21.6406 43.6693 22.0312 43.5391C22.4219 43.4349 22.7865 43.3177 23.125 43.1875C23.4896 43.0573 23.75 42.9401 23.9062 42.8359C23.9844 42.862 24.0625 42.875 24.1406 42.875H24.4141C24.7786 42.875 25.1172 42.8099 25.4297 42.6797C25.7422 42.5495 26.0807 42.5104 26.4453 42.5625C27.6432 41.9635 28.8542 41.4427 30.0781 41C31.3281 40.5833 32.5911 40.2057 33.8672 39.8672C34.0234 39.6328 34.2057 39.4635 34.4141 39.3594C34.6484 39.2552 34.8958 39.1771 35.1562 39.125C35.4167 39.0469 35.6771 38.9948 35.9375 38.9688C36.1979 38.9167 36.4453 38.8516 36.6797 38.7734C36.8359 38.6953 36.9661 38.6042 37.0703 38.5C37.2005 38.3698 37.3568 38.2656 37.5391 38.1875C37.7214 38.1094 37.9167 38.0573 38.125 38.0312C38.3594 38.0052 38.5807 37.9792 38.7891 37.9531C39.0234 37.901 39.2318 37.8359 39.4141 37.7578C39.6224 37.6797 39.7917 37.5495 39.9219 37.3672C40.2865 37.5234 40.651 37.6927 41.0156 37.875C41.4062 38.0573 41.7318 38.3177 41.9922 38.6562L42.0312 38.7734ZM67.6953 39.5547C67.6953 39.8151 67.6823 40.0104 67.6562 40.1406C67.526 40.1927 67.4219 40.2708 67.3438 40.375C67.2656 40.4531 67.1354 40.4792 66.9531 40.4531C66.901 40.8438 66.7708 41.1693 66.5625 41.4297C66.3542 41.6901 66.1328 41.9245 65.8984 42.1328C65.6901 42.3672 65.4818 42.6016 65.2734 42.8359C65.0651 43.0964 64.9349 43.4219 64.8828 43.8125C64.4922 44.0208 64.1016 44.2943 63.7109 44.6328C63.3464 44.9974 63.0208 45.2448 62.7344 45.375C62.526 45.4792 62.3047 45.5573 62.0703 45.6094C61.8359 45.6875 61.6016 45.7786 61.3672 45.8828C60.612 46.2214 59.8307 46.5729 59.0234 46.9375C58.2422 47.3021 57.4219 47.4844 56.5625 47.4844H56.2891C56.1849 47.5885 56.0547 47.6536 55.8984 47.6797C55.7422 47.7318 55.5859 47.7708 55.4297 47.7969C55.2734 47.8229 55.1172 47.862 54.9609 47.9141C54.8047 47.9661 54.6875 48.0443 54.6094 48.1484C54.3229 48.0443 54.0104 47.9922 53.6719 47.9922H53.3984C52.9557 48.0964 52.5391 48.1745 52.1484 48.2266C51.7578 48.2786 51.3411 48.3047 50.8984 48.3047C50.1172 48.3047 49.3359 48.2526 48.5547 48.1484C47.7734 48.0443 46.9922 47.9531 46.2109 47.875C45.7161 47.4844 45.3125 46.9896 45 46.3906C44.6875 45.8177 44.5312 45.2057 44.5312 44.5547C44.5312 44.0599 44.6354 43.5911 44.8438 43.1484C45.0521 42.7318 45.3255 42.3542 45.6641 42.0156H45.7812C46.0156 42.0156 46.25 41.9635 46.4844 41.8594C46.7448 41.7552 46.9922 41.7031 47.2266 41.7031C47.487 41.7031 47.6953 41.8073 47.8516 42.0156C48.0339 42.224 48.1641 42.4714 48.2422 42.7578C48.3464 43.0443 48.4115 43.3307 48.4375 43.6172C48.4635 43.9297 48.4766 44.1771 48.4766 44.3594C48.763 44.4896 49.0625 44.5677 49.375 44.5938C49.7135 44.6198 50.0521 44.6328 50.3906 44.6328C50.7292 44.6328 51.1068 44.6068 51.5234 44.5547C51.9401 44.5286 52.3568 44.4635 52.7734 44.3594C53.2161 44.2812 53.6328 44.1771 54.0234 44.0469C54.4401 43.9167 54.7917 43.7474 55.0781 43.5391C56.5104 43.4089 57.7734 43.0833 58.8672 42.5625C59.9609 42.0417 61.1198 41.4297 62.3438 40.7266C62.3958 40.4401 62.5 40.2188 62.6562 40.0625C62.8385 39.8802 62.9297 39.6198 62.9297 39.2812C62.9297 39.2292 62.9167 39.1771 62.8906 39.125C62.8906 39.0469 62.8906 38.9818 62.8906 38.9297C62.3698 38.2786 61.8229 37.7057 61.25 37.2109C60.7031 36.7161 59.987 36.3906 59.1016 36.2344C58.9974 36 58.8281 35.8307 58.5938 35.7266C58.3594 35.5964 58.112 35.4792 57.8516 35.375C57.5911 35.2708 57.3438 35.1667 57.1094 35.0625C56.875 34.9323 56.7057 34.724 56.6016 34.4375C55.8984 34.3073 55.1693 34.151 54.4141 33.9688C53.6849 33.7604 53.0599 33.3958 52.5391 32.875C52.1224 32.849 51.7188 32.7708 51.3281 32.6406C50.9635 32.4844 50.599 32.3411 50.2344 32.2109C49.8698 32.0547 49.4922 31.9245 49.1016 31.8203C48.7109 31.6901 48.3073 31.625 47.8906 31.625C47.7865 31.4427 47.6432 31.2995 47.4609 31.1953C47.2786 31.0911 47.0703 31 46.8359 30.9219C46.6276 30.8438 46.4193 30.7656 46.2109 30.6875C46.0286 30.5833 45.8854 30.4401 45.7812 30.2578C45.6771 30.2839 45.599 30.3359 45.5469 30.4141C45.4948 30.4922 45.4036 30.5312 45.2734 30.5312H45.1172C45.0651 30.375 44.9609 30.2708 44.8047 30.2188C44.6484 30.1406 44.5573 29.9974 44.5312 29.7891C44.0625 29.763 43.6328 29.6719 43.2422 29.5156C42.8776 29.3594 42.526 29.1901 42.1875 29.0078C41.875 28.7995 41.5495 28.6042 41.2109 28.4219C40.8724 28.2396 40.4948 28.0964 40.0781 27.9922C39.8177 27.7839 39.5703 27.5625 39.3359 27.3281C39.1276 27.0677 38.8542 26.9375 38.5156 26.9375C38.4375 26.9375 38.2943 26.9635 38.0859 27.0156C38.0339 26.5469 37.8385 26.2214 37.5 26.0391C37.1615 25.8307 36.7969 25.6484 36.4062 25.4922C36.1458 24.8151 35.7943 24.2161 35.3516 23.6953C34.9089 23.1745 34.4271 22.6927 33.9062 22.25C33.9583 22.0938 33.9844 21.9766 33.9844 21.8984C33.9844 21.638 33.9193 21.4167 33.7891 21.2344C33.6589 21.026 33.5156 20.8568 33.3594 20.7266C32.9948 19.5547 32.8125 18.4089 32.8125 17.2891C32.8125 15.7266 33.1641 14.2812 33.8672 12.9531C34.5443 11.599 35.625 10.5833 37.1094 9.90625C37.1354 9.69792 37.2005 9.51562 37.3047 9.35938C37.4349 9.20312 37.513 9.02083 37.5391 8.8125C37.7734 8.8125 37.9557 8.76042 38.0859 8.65625C38.2161 8.55208 38.3333 8.44792 38.4375 8.34375C38.5677 8.21354 38.6979 8.09635 38.8281 7.99219C38.9583 7.88802 39.1276 7.82292 39.3359 7.79688C40.3255 6.9375 41.3802 6.2474 42.5 5.72656C43.6198 5.17969 44.7656 4.61979 45.9375 4.04688C46.1719 3.94271 46.3672 3.7474 46.5234 3.46094H46.7578C47.0182 3.46094 47.2135 3.40885 47.3438 3.30469C47.5 3.17448 47.7214 3.13542 48.0078 3.1875C48.112 3.03125 48.2422 2.92708 48.3984 2.875C48.5807 2.82292 48.75 2.78385 48.9062 2.75781C49.0885 2.70573 49.2578 2.64062 49.4141 2.5625C49.5703 2.48438 49.6745 2.36719 49.7266 2.21094H50C50.4427 2.21094 50.8724 2.14583 51.2891 2.01562C51.7057 1.85938 52.1224 1.6901 52.5391 1.50781H52.8125C53.3333 1.50781 53.8151 1.41667 54.2578 1.23438C54.7266 1.02604 55.2214 0.882812 55.7422 0.804688C55.9505 0.752604 56.1589 0.739583 56.3672 0.765625C56.5755 0.791667 56.7839 0.804688 56.9922 0.804688C57.1224 0.804688 57.2786 0.791667 57.4609 0.765625C57.6432 0.739583 57.7734 0.661458 57.8516 0.53125H57.9297C58.0859 0.53125 58.1771 0.583333 58.2031 0.6875C58.2292 0.791667 58.3073 0.84375 58.4375 0.84375C58.6198 0.84375 58.8021 0.817708 58.9844 0.765625C59.1667 0.713542 59.349 0.6875 59.5312 0.6875C60.3125 0.6875 61.0807 0.765625 61.8359 0.921875C62.6172 1.07812 63.3854 1.22135 64.1406 1.35156C64.1927 1.66406 64.3229 1.88542 64.5312 2.01562C64.7656 2.14583 65.013 2.26302 65.2734 2.36719V2.52344C65.2734 2.73177 65.3255 2.90104 65.4297 3.03125C65.3255 3.39583 65.1432 3.66927 64.8828 3.85156C64.6224 4.03385 64.3359 4.1901 64.0234 4.32031C64.1536 4.42448 64.2318 4.56771 64.2578 4.75C64.2839 4.93229 64.2969 5.10156 64.2969 5.25781V5.72656L64.1016 5.6875C63.6849 5.6875 63.4766 5.88281 63.4766 6.27344C63.138 6.0651 62.7604 5.9349 62.3438 5.88281C61.9531 5.83073 61.5625 5.80469 61.1719 5.80469C60.651 5.80469 60.1042 5.83073 59.5312 5.88281C58.9583 5.90885 58.3984 5.89583 57.8516 5.84375C57.6432 6.10417 57.3828 6.29948 57.0703 6.42969C56.7578 6.53385 56.4453 6.58594 56.1328 6.58594C55.7943 6.58594 55.4688 6.52083 55.1562 6.39062C54.8438 6.23438 54.6224 6.01302 54.4922 5.72656C54.362 5.67448 54.2448 5.64844 54.1406 5.64844H53.7891C53.3724 5.64844 52.9557 5.70052 52.5391 5.80469C52.1484 5.88281 51.7448 5.98698 51.3281 6.11719C50.9115 6.22135 50.4948 6.33854 50.0781 6.46875C49.6875 6.57292 49.2839 6.63802 48.8672 6.66406C48.7109 6.8724 48.5026 7.01562 48.2422 7.09375C47.9818 7.17188 47.7734 7.3151 47.6172 7.52344C47.0703 7.6276 46.5755 7.8099 46.1328 8.07031C45.6901 8.30469 45.2604 8.5651 44.8438 8.85156L43.6328 9.67188C43.2422 9.93229 42.7995 10.1536 42.3047 10.3359C41.9401 10.7266 41.6016 11.0391 41.2891 11.2734C40.9766 11.5078 40.5729 11.7161 40.0781 11.8984C39.7656 12.0026 39.5833 12.1589 39.5312 12.3672C39.5052 12.5755 39.401 12.7839 39.2188 12.9922C39.0625 13.1745 38.8672 13.3177 38.6328 13.4219C38.4245 13.5 38.2422 13.6432 38.0859 13.8516C37.9557 14.0339 37.8516 14.2552 37.7734 14.5156C37.7214 14.75 37.6562 14.9844 37.5781 15.2188C37.5 15.4531 37.4089 15.6875 37.3047 15.9219C37.2005 16.1302 37.0443 16.3125 36.8359 16.4688C36.8359 16.5729 36.8229 16.6771 36.7969 16.7812C36.7969 16.8854 36.7969 16.9766 36.7969 17.0547C36.7969 17.4193 36.8359 17.7969 36.9141 18.1875C37.0182 18.5521 37.0833 18.9167 37.1094 19.2812C37.6302 20.1927 38.2422 21.026 38.9453 21.7812C39.6484 22.5104 40.4036 23.1875 41.2109 23.8125C42.0182 24.4375 42.8516 25.0234 43.7109 25.5703C44.5964 26.1172 45.4688 26.651 46.3281 27.1719C46.6406 27.1458 46.9271 27.1849 47.1875 27.2891C47.4479 27.3672 47.7214 27.4193 48.0078 27.4453C48.3203 27.6797 48.6849 27.862 49.1016 27.9922L50.3516 28.3828C50.7682 28.513 51.1719 28.6693 51.5625 28.8516C51.9531 29.0078 52.2786 29.2292 52.5391 29.5156C52.6693 29.5417 52.7865 29.5807 52.8906 29.6328C52.9948 29.6589 53.112 29.6719 53.2422 29.6719C53.3984 29.6719 53.4896 29.6198 53.5156 29.5156C54.6875 29.9583 55.8333 30.4531 56.9531 31C58.0729 31.5208 59.2578 31.9245 60.5078 32.2109C61.0026 32.6276 61.5495 32.9922 62.1484 33.3047C62.7474 33.6172 63.3464 33.9427 63.9453 34.2812C64.5443 34.5938 65.1172 34.9453 65.6641 35.3359C66.2109 35.7005 66.6927 36.1432 67.1094 36.6641C67.1615 37.1589 67.2656 37.6406 67.4219 38.1094C67.6042 38.5521 67.6953 39.0339 67.6953 39.5547ZM116.445 42.6016C116.393 43.1224 116.211 43.526 115.898 43.8125C115.586 44.125 115.182 44.2812 114.688 44.2812C114.427 44.2812 114.18 44.2422 113.945 44.1641C113.451 44.5547 112.865 44.8542 112.188 45.0625C111.51 45.2708 110.872 45.4792 110.273 45.6875C109.544 45.6615 108.828 45.5964 108.125 45.4922C107.422 45.388 106.693 45.362 105.938 45.4141C105.677 45.2318 105.404 45.1146 105.117 45.0625C104.831 45.0104 104.531 44.9714 104.219 44.9453C103.932 44.9453 103.646 44.9062 103.359 44.8281C103.099 44.75 102.839 44.5677 102.578 44.2812H100.625C100.443 44.2812 100.169 44.1901 99.8047 44.0078C99.4661 43.8516 99.0755 43.6823 98.6328 43.5C98.2161 43.3177 97.7604 43.1484 97.2656 42.9922C96.7969 42.8359 96.3542 42.7578 95.9375 42.7578H95.7031C95.4167 42.5234 95.0781 42.3411 94.6875 42.2109C94.3229 42.1068 93.9453 42.0026 93.5547 41.8984C93.1641 41.8203 92.7865 41.7292 92.4219 41.625C92.0573 41.5208 91.7448 41.3776 91.4844 41.1953C91.224 41.013 90.9245 40.8307 90.5859 40.6484C90.2474 40.4401 89.8958 40.349 89.5312 40.375C89.0365 40.0885 88.5156 39.8411 87.9688 39.6328C87.4479 39.4245 86.9141 39.2292 86.3672 39.0469L84.7656 38.4609C84.2448 38.2526 83.724 38.0052 83.2031 37.7188C83.125 37.7448 83.0339 37.7448 82.9297 37.7188C82.8255 37.6927 82.7344 37.6797 82.6562 37.6797C82.5 37.6797 82.4089 37.7318 82.3828 37.8359C82.2005 37.6536 81.9922 37.4974 81.7578 37.3672C81.5495 37.237 81.3411 37.0807 81.1328 36.8984C81.0286 36.9245 80.9245 36.9505 80.8203 36.9766C80.7422 36.9766 80.638 36.9766 80.5078 36.9766C80.2734 36.9766 80.0391 36.9505 79.8047 36.8984C79.5964 36.8464 79.388 36.7812 79.1797 36.7031C78.9453 37.224 78.7891 37.8099 78.7109 38.4609C78.6328 39.112 78.5677 39.7891 78.5156 40.4922C78.4896 41.1693 78.4505 41.8464 78.3984 42.5234C78.3464 43.2266 78.2292 43.8646 78.0469 44.4375C78.099 44.6458 78.125 44.8542 78.125 45.0625V45.7266C78.125 46.1693 78.1901 46.5208 78.3203 46.7812C78.2682 47.0156 78.2161 47.237 78.1641 47.4453C78.138 47.6536 78.099 47.862 78.0469 48.0703C78.0729 48.3568 78.0859 48.6172 78.0859 48.8516C78.112 49.112 78.125 49.3854 78.125 49.6719V50.3359C78.125 50.5703 78.099 50.8047 78.0469 51.0391C77.7865 51.1953 77.526 51.3385 77.2656 51.4688C77.0052 51.625 76.7448 51.8073 76.4844 52.0156C76.3021 51.6771 75.9896 51.4818 75.5469 51.4297C75.4427 51.5599 75.3646 51.7292 75.3125 51.9375C75.2865 52.1719 75.1693 52.2891 74.9609 52.2891C74.5964 52.0026 74.2969 51.7682 74.0625 51.5859C73.8281 51.4036 73.5677 51.1302 73.2812 50.7656C73.2552 50.7135 73.2422 50.6484 73.2422 50.5703C73.2422 50.4401 73.2682 50.3229 73.3203 50.2188C73.3724 50.1146 73.3984 50.0104 73.3984 49.9062C73.3984 49.5938 73.3594 49.3203 73.2812 49.0859C73.2292 48.7474 73.1901 48.4089 73.1641 48.0703C73.138 47.7578 73.125 47.4453 73.125 47.1328C73.125 46.6901 73.151 46.2604 73.2031 45.8438C73.2812 45.4271 73.4115 44.9974 73.5938 44.5547C73.8802 43.7995 74.0755 43.0052 74.1797 42.1719C74.3099 41.3385 74.401 40.5052 74.4531 39.6719C74.5052 38.8125 74.5312 37.9531 74.5312 37.0938C74.5573 36.2344 74.6094 35.4141 74.6875 34.6328C74.5052 34.2161 74.2839 33.8906 74.0234 33.6562C73.7891 33.3958 73.6719 32.9922 73.6719 32.4453C73.6719 31.9505 73.8281 31.5729 74.1406 31.3125C74.4531 31.026 74.7266 30.6875 74.9609 30.2969C74.9089 30.1406 74.9479 30.0365 75.0781 29.9844L75.5469 25.8828C75.5729 25.5964 75.612 25.2839 75.6641 24.9453C75.7422 24.6068 75.7943 24.2943 75.8203 24.0078C75.8724 23.4089 75.8984 22.8229 75.8984 22.25C75.8984 21.6771 75.9245 21.1042 75.9766 20.5312C76.1068 19.2552 76.224 17.9922 76.3281 16.7422C76.4583 15.4922 76.5234 14.2422 76.5234 12.9922C76.5234 12.3932 76.4974 11.7943 76.4453 11.1953C76.4193 10.5964 76.3411 9.9974 76.2109 9.39844C75.7682 9.52865 75.2734 9.67188 74.7266 9.82812C74.2057 9.95833 73.763 10.1927 73.3984 10.5312H73.0859C72.4089 10.5312 71.7708 10.6615 71.1719 10.9219C70.599 11.1823 70.013 11.4297 69.4141 11.6641C69.1536 11.7943 68.8932 11.8854 68.6328 11.9375C68.3724 11.9635 68.099 12.0156 67.8125 12.0938C67.6823 12.1198 67.5391 12.1979 67.3828 12.3281C67.2266 12.4583 67.0833 12.5495 66.9531 12.6016L66.2891 12.7578C66.1068 12.8099 66.0286 12.9271 66.0547 13.1094C66.0807 13.2917 66.0156 13.4089 65.8594 13.4609C65.7292 13.5911 65.5469 13.6562 65.3125 13.6562C65.0781 13.6302 64.8958 13.6172 64.7656 13.6172H64.6094C63.9583 14.0859 63.3333 14.4896 62.7344 14.8281C62.1094 15.1406 61.3802 15.349 60.5469 15.4531L59.6875 16C59.401 16.1823 59.0755 16.2734 58.7109 16.2734C58.4245 16.2734 58.1901 16.2214 58.0078 16.1172C57.7995 15.8047 57.6432 15.4531 57.5391 15.0625C57.4089 14.6719 57.2005 14.3333 56.9141 14.0469C57.0443 13.9167 57.1354 13.7474 57.1875 13.5391C57.2135 13.3047 57.2526 13.0964 57.3047 12.9141C58.0859 12.5755 58.8802 12.25 59.6875 11.9375C60.4688 11.625 61.224 11.2474 61.9531 10.8047C62.0312 10.8307 62.1484 10.8438 62.3047 10.8438C62.5651 10.8438 62.7995 10.8047 63.0078 10.7266C63.2161 10.6484 63.4245 10.5573 63.6328 10.4531C63.8411 10.349 64.0495 10.2578 64.2578 10.1797C64.4661 10.1016 64.7135 10.0755 65 10.1016C65.8854 9.60677 66.8229 9.20312 67.8125 8.89062C68.8021 8.57812 69.7396 8.14844 70.625 7.60156C70.7552 7.60156 70.8594 7.6276 70.9375 7.67969C71.0417 7.73177 71.1458 7.75781 71.25 7.75781C71.3542 7.75781 71.4193 7.74479 71.4453 7.71875C71.6016 7.51042 71.8099 7.36719 72.0703 7.28906C72.3307 7.1849 72.5911 7.10677 72.8516 7.05469C73.138 6.97656 73.3984 6.88542 73.6328 6.78125C73.8932 6.65104 74.0625 6.45573 74.1406 6.19531C74.2708 6.29948 74.4661 6.35156 74.7266 6.35156C75.1693 6.35156 75.5729 6.26042 75.9375 6.07812C76.3281 5.89583 76.7448 5.80469 77.1875 5.80469C77.2917 5.80469 77.3828 5.83073 77.4609 5.88281C77.5651 5.90885 77.6693 5.92188 77.7734 5.92188C77.9818 5.92188 78.0859 5.85677 78.0859 5.72656C78.112 5.59635 78.1901 5.47917 78.3203 5.375C79.9089 5.08854 81.4844 4.82812 83.0469 4.59375C84.6354 4.35938 86.237 4.24219 87.8516 4.24219C88.0859 4.08594 88.3464 4.00781 88.6328 4.00781C88.9193 4.00781 89.1797 4.08594 89.4141 4.24219C89.8568 4.1901 90.2995 4.15104 90.7422 4.125C91.1849 4.09896 91.6276 4.08594 92.0703 4.08594C93.0859 4.08594 94.1276 4.15104 95.1953 4.28125C96.263 4.41146 97.3177 4.61979 98.3594 4.90625C99.4271 5.16667 100.443 5.53125 101.406 6C102.37 6.44271 103.268 6.97656 104.102 7.60156C104.18 7.83594 104.284 8.07031 104.414 8.30469C104.544 8.53906 104.714 8.72135 104.922 8.85156C104.922 8.90365 104.909 8.94271 104.883 8.96875C104.883 8.99479 104.883 9.03385 104.883 9.08594C104.883 9.3724 104.961 9.64583 105.117 9.90625C105.299 10.1667 105.391 10.4792 105.391 10.8438C105.391 11.2083 105.326 11.5729 105.195 11.9375C105.091 12.3021 105.052 12.6667 105.078 13.0312C104.792 13.4479 104.544 13.8255 104.336 14.1641C104.154 14.5026 104.036 14.9323 103.984 15.4531C103.516 15.9219 103.099 16.4427 102.734 17.0156C102.37 17.5625 101.992 18.1094 101.602 18.6562C101.237 19.1771 100.82 19.6589 100.352 20.1016C99.8828 20.5443 99.3229 20.8958 98.6719 21.1562C98.6458 21.4167 98.5417 21.7031 98.3594 22.0156H97.5391C97.4609 22.224 97.3307 22.3802 97.1484 22.4844L96.6016 22.7969C96.4193 22.901 96.263 23.0312 96.1328 23.1875C96.0286 23.3438 95.9766 23.5651 95.9766 23.8516C95.9245 23.8255 95.8594 23.8125 95.7812 23.8125C95.5208 23.8125 95.2083 23.9427 94.8438 24.2031C94.5052 24.4635 94.2318 24.6719 94.0234 24.8281C93.5807 25.1406 93.125 25.4271 92.6562 25.6875C92.2135 25.9479 91.8229 26.3125 91.4844 26.7812C90.4427 27.224 89.4531 27.7448 88.5156 28.3438C87.5781 28.9167 86.5625 29.3724 85.4688 29.7109C85.0521 30.1536 84.5573 30.5052 83.9844 30.7656C83.4375 31 82.9036 31.2604 82.3828 31.5469V31.6641C82.3828 31.8724 82.4609 32.0807 82.6172 32.2891C82.7734 32.4714 82.9557 32.6406 83.1641 32.7969C83.3724 32.9271 83.5938 33.0182 83.8281 33.0703C84.0885 33.1224 84.3099 33.1224 84.4922 33.0703C85.013 33.5391 85.612 33.9167 86.2891 34.2031C86.9661 34.4896 87.6693 34.75 88.3984 34.9844C89.1276 35.2188 89.8438 35.4661 90.5469 35.7266C91.25 35.987 91.901 36.3125 92.5 36.7031H93.4375C94.0365 37.224 94.7396 37.6146 95.5469 37.875C96.3802 38.1354 97.1745 38.3698 97.9297 38.5781C98.2422 38.8646 98.6328 39.0859 99.1016 39.2422C99.5964 39.3724 100.065 39.4375 100.508 39.4375H100.742C100.846 39.4375 100.938 39.4245 101.016 39.3984V39.4766C101.016 39.6068 101.055 39.6979 101.133 39.75C101.211 39.776 101.289 39.8021 101.367 39.8281C101.471 39.8281 101.562 39.8542 101.641 39.9062C101.745 39.9323 101.823 39.9844 101.875 40.0625H102.266C102.812 40.0625 103.333 40.1797 103.828 40.4141C104.323 40.6224 104.844 40.7266 105.391 40.7266C105.625 40.7266 105.807 40.7005 105.938 40.6484C106.094 40.7005 106.211 40.8047 106.289 40.9609C106.367 41.1172 106.471 41.2474 106.602 41.3516C106.784 41.3255 106.953 41.2995 107.109 41.2734C107.266 41.2734 107.422 41.2734 107.578 41.2734C108.151 41.2734 108.685 41.3385 109.18 41.4688C109.674 41.599 110.182 41.7943 110.703 42.0547C111.536 41.6901 112.357 41.3906 113.164 41.1562C113.971 40.9219 114.831 40.8047 115.742 40.8047V40.8828C115.742 41.1953 115.82 41.4818 115.977 41.7422C116.159 42.0286 116.315 42.3151 116.445 42.6016ZM101.484 11.4297C101.484 11.1172 101.419 10.8698 101.289 10.6875C101.185 10.5052 101.042 10.349 100.859 10.2188C100.677 10.0625 100.482 9.91927 100.273 9.78906C100.091 9.65885 99.9219 9.48958 99.7656 9.28125C99.0885 9.07292 98.4245 8.83854 97.7734 8.57812C97.1224 8.31771 96.4583 8.09635 95.7812 7.91406C95.4427 7.83594 95.1042 7.77083 94.7656 7.71875C94.4271 7.64062 94.0885 7.60156 93.75 7.60156H92.8906C92.7344 7.57552 92.5651 7.54948 92.3828 7.52344C92.2266 7.47135 92.0703 7.43229 91.9141 7.40625C91.5495 7.35417 91.1849 7.3151 90.8203 7.28906C90.4818 7.26302 90.1302 7.25 89.7656 7.25C89.0885 7.25 88.4115 7.27604 87.7344 7.32812L85.7031 7.48438C85.4167 7.51042 85.1172 7.52344 84.8047 7.52344C84.4922 7.52344 84.2057 7.54948 83.9453 7.60156C83.8151 7.6276 83.6328 7.69271 83.3984 7.79688C83.1641 7.875 82.9167 7.96615 82.6562 8.07031C82.3958 8.14844 82.1354 8.23958 81.875 8.34375C81.6406 8.44792 81.4323 8.52604 81.25 8.57812C81.276 8.76042 81.2891 8.94271 81.2891 9.125V9.63281C81.2891 10.0234 81.276 10.4141 81.25 10.8047C81.224 11.1953 81.1719 11.5859 81.0938 11.9766C81.0677 12.1328 81.0286 12.2891 80.9766 12.4453C80.9245 12.6016 80.8854 12.7578 80.8594 12.9141C80.8073 13.1484 80.7812 13.4089 80.7812 13.6953V14.4375C80.7292 15.0365 80.6901 15.6224 80.6641 16.1953C80.638 16.7682 80.599 17.3542 80.5469 17.9531C80.3906 19.6719 80.2214 21.3776 80.0391 23.0703C79.8828 24.763 79.7786 26.4688 79.7266 28.1875C80.5859 28.0052 81.4062 27.7318 82.1875 27.3672C82.9688 27.0026 83.737 26.612 84.4922 26.1953C85.2474 25.7526 86.0026 25.3229 86.7578 24.9062C87.513 24.4896 88.3073 24.138 89.1406 23.8516C89.349 23.5651 89.5964 23.3307 89.8828 23.1484C90.1953 22.9661 90.4557 22.7318 90.6641 22.4453C90.9245 22.4453 91.1198 22.3932 91.25 22.2891C91.3802 22.1589 91.5495 22.0677 91.7578 22.0156C93.0078 20.9219 94.2839 19.8932 95.5859 18.9297C96.888 17.9661 98.138 16.9375 99.3359 15.8438C99.4401 15.4792 99.6094 15.1276 99.8438 14.7891C100.104 14.4245 100.352 14.0599 100.586 13.6953C100.82 13.3307 101.029 12.9661 101.211 12.6016C101.393 12.237 101.484 11.8464 101.484 11.4297ZM141.328 39.5547C141.328 39.8151 141.315 40.0104 141.289 40.1406C141.159 40.1927 141.055 40.2708 140.977 40.375C140.898 40.4531 140.768 40.4792 140.586 40.4531C140.534 40.8438 140.404 41.1693 140.195 41.4297C139.987 41.6901 139.766 41.9245 139.531 42.1328C139.323 42.3672 139.115 42.6016 138.906 42.8359C138.698 43.0964 138.568 43.4219 138.516 43.8125C138.125 44.0208 137.734 44.2943 137.344 44.6328C136.979 44.9974 136.654 45.2448 136.367 45.375C136.159 45.4792 135.938 45.5573 135.703 45.6094C135.469 45.6875 135.234 45.7786 135 45.8828C134.245 46.2214 133.464 46.5729 132.656 46.9375C131.875 47.3021 131.055 47.4844 130.195 47.4844H129.922C129.818 47.5885 129.688 47.6536 129.531 47.6797C129.375 47.7318 129.219 47.7708 129.062 47.7969C128.906 47.8229 128.75 47.862 128.594 47.9141C128.438 47.9661 128.32 48.0443 128.242 48.1484C127.956 48.0443 127.643 47.9922 127.305 47.9922H127.031C126.589 48.0964 126.172 48.1745 125.781 48.2266C125.391 48.2786 124.974 48.3047 124.531 48.3047C123.75 48.3047 122.969 48.2526 122.188 48.1484C121.406 48.0443 120.625 47.9531 119.844 47.875C119.349 47.4844 118.945 46.9896 118.633 46.3906C118.32 45.8177 118.164 45.2057 118.164 44.5547C118.164 44.0599 118.268 43.5911 118.477 43.1484C118.685 42.7318 118.958 42.3542 119.297 42.0156H119.414C119.648 42.0156 119.883 41.9635 120.117 41.8594C120.378 41.7552 120.625 41.7031 120.859 41.7031C121.12 41.7031 121.328 41.8073 121.484 42.0156C121.667 42.224 121.797 42.4714 121.875 42.7578C121.979 43.0443 122.044 43.3307 122.07 43.6172C122.096 43.9297 122.109 44.1771 122.109 44.3594C122.396 44.4896 122.695 44.5677 123.008 44.5938C123.346 44.6198 123.685 44.6328 124.023 44.6328C124.362 44.6328 124.74 44.6068 125.156 44.5547C125.573 44.5286 125.99 44.4635 126.406 44.3594C126.849 44.2812 127.266 44.1771 127.656 44.0469C128.073 43.9167 128.424 43.7474 128.711 43.5391C130.143 43.4089 131.406 43.0833 132.5 42.5625C133.594 42.0417 134.753 41.4297 135.977 40.7266C136.029 40.4401 136.133 40.2188 136.289 40.0625C136.471 39.8802 136.562 39.6198 136.562 39.2812C136.562 39.2292 136.549 39.1771 136.523 39.125C136.523 39.0469 136.523 38.9818 136.523 38.9297C136.003 38.2786 135.456 37.7057 134.883 37.2109C134.336 36.7161 133.62 36.3906 132.734 36.2344C132.63 36 132.461 35.8307 132.227 35.7266C131.992 35.5964 131.745 35.4792 131.484 35.375C131.224 35.2708 130.977 35.1667 130.742 35.0625C130.508 34.9323 130.339 34.724 130.234 34.4375C129.531 34.3073 128.802 34.151 128.047 33.9688C127.318 33.7604 126.693 33.3958 126.172 32.875C125.755 32.849 125.352 32.7708 124.961 32.6406C124.596 32.4844 124.232 32.3411 123.867 32.2109C123.503 32.0547 123.125 31.9245 122.734 31.8203C122.344 31.6901 121.94 31.625 121.523 31.625C121.419 31.4427 121.276 31.2995 121.094 31.1953C120.911 31.0911 120.703 31 120.469 30.9219C120.26 30.8438 120.052 30.7656 119.844 30.6875C119.661 30.5833 119.518 30.4401 119.414 30.2578C119.31 30.2839 119.232 30.3359 119.18 30.4141C119.128 30.4922 119.036 30.5312 118.906 30.5312H118.75C118.698 30.375 118.594 30.2708 118.438 30.2188C118.281 30.1406 118.19 29.9974 118.164 29.7891C117.695 29.763 117.266 29.6719 116.875 29.5156C116.51 29.3594 116.159 29.1901 115.82 29.0078C115.508 28.7995 115.182 28.6042 114.844 28.4219C114.505 28.2396 114.128 28.0964 113.711 27.9922C113.451 27.7839 113.203 27.5625 112.969 27.3281C112.76 27.0677 112.487 26.9375 112.148 26.9375C112.07 26.9375 111.927 26.9635 111.719 27.0156C111.667 26.5469 111.471 26.2214 111.133 26.0391C110.794 25.8307 110.43 25.6484 110.039 25.4922C109.779 24.8151 109.427 24.2161 108.984 23.6953C108.542 23.1745 108.06 22.6927 107.539 22.25C107.591 22.0938 107.617 21.9766 107.617 21.8984C107.617 21.638 107.552 21.4167 107.422 21.2344C107.292 21.026 107.148 20.8568 106.992 20.7266C106.628 19.5547 106.445 18.4089 106.445 17.2891C106.445 15.7266 106.797 14.2812 107.5 12.9531C108.177 11.599 109.258 10.5833 110.742 9.90625C110.768 9.69792 110.833 9.51562 110.938 9.35938C111.068 9.20312 111.146 9.02083 111.172 8.8125C111.406 8.8125 111.589 8.76042 111.719 8.65625C111.849 8.55208 111.966 8.44792 112.07 8.34375C112.201 8.21354 112.331 8.09635 112.461 7.99219C112.591 7.88802 112.76 7.82292 112.969 7.79688C113.958 6.9375 115.013 6.2474 116.133 5.72656C117.253 5.17969 118.398 4.61979 119.57 4.04688C119.805 3.94271 120 3.7474 120.156 3.46094H120.391C120.651 3.46094 120.846 3.40885 120.977 3.30469C121.133 3.17448 121.354 3.13542 121.641 3.1875C121.745 3.03125 121.875 2.92708 122.031 2.875C122.214 2.82292 122.383 2.78385 122.539 2.75781C122.721 2.70573 122.891 2.64062 123.047 2.5625C123.203 2.48438 123.307 2.36719 123.359 2.21094H123.633C124.076 2.21094 124.505 2.14583 124.922 2.01562C125.339 1.85938 125.755 1.6901 126.172 1.50781H126.445C126.966 1.50781 127.448 1.41667 127.891 1.23438C128.359 1.02604 128.854 0.882812 129.375 0.804688C129.583 0.752604 129.792 0.739583 130 0.765625C130.208 0.791667 130.417 0.804688 130.625 0.804688C130.755 0.804688 130.911 0.791667 131.094 0.765625C131.276 0.739583 131.406 0.661458 131.484 0.53125H131.562C131.719 0.53125 131.81 0.583333 131.836 0.6875C131.862 0.791667 131.94 0.84375 132.07 0.84375C132.253 0.84375 132.435 0.817708 132.617 0.765625C132.799 0.713542 132.982 0.6875 133.164 0.6875C133.945 0.6875 134.714 0.765625 135.469 0.921875C136.25 1.07812 137.018 1.22135 137.773 1.35156C137.826 1.66406 137.956 1.88542 138.164 2.01562C138.398 2.14583 138.646 2.26302 138.906 2.36719V2.52344C138.906 2.73177 138.958 2.90104 139.062 3.03125C138.958 3.39583 138.776 3.66927 138.516 3.85156C138.255 4.03385 137.969 4.1901 137.656 4.32031C137.786 4.42448 137.865 4.56771 137.891 4.75C137.917 4.93229 137.93 5.10156 137.93 5.25781V5.72656L137.734 5.6875C137.318 5.6875 137.109 5.88281 137.109 6.27344C136.771 6.0651 136.393 5.9349 135.977 5.88281C135.586 5.83073 135.195 5.80469 134.805 5.80469C134.284 5.80469 133.737 5.83073 133.164 5.88281C132.591 5.90885 132.031 5.89583 131.484 5.84375C131.276 6.10417 131.016 6.29948 130.703 6.42969C130.391 6.53385 130.078 6.58594 129.766 6.58594C129.427 6.58594 129.102 6.52083 128.789 6.39062C128.477 6.23438 128.255 6.01302 128.125 5.72656C127.995 5.67448 127.878 5.64844 127.773 5.64844H127.422C127.005 5.64844 126.589 5.70052 126.172 5.80469C125.781 5.88281 125.378 5.98698 124.961 6.11719C124.544 6.22135 124.128 6.33854 123.711 6.46875C123.32 6.57292 122.917 6.63802 122.5 6.66406C122.344 6.8724 122.135 7.01562 121.875 7.09375C121.615 7.17188 121.406 7.3151 121.25 7.52344C120.703 7.6276 120.208 7.8099 119.766 8.07031C119.323 8.30469 118.893 8.5651 118.477 8.85156L117.266 9.67188C116.875 9.93229 116.432 10.1536 115.938 10.3359C115.573 10.7266 115.234 11.0391 114.922 11.2734C114.609 11.5078 114.206 11.7161 113.711 11.8984C113.398 12.0026 113.216 12.1589 113.164 12.3672C113.138 12.5755 113.034 12.7839 112.852 12.9922C112.695 13.1745 112.5 13.3177 112.266 13.4219C112.057 13.5 111.875 13.6432 111.719 13.8516C111.589 14.0339 111.484 14.2552 111.406 14.5156C111.354 14.75 111.289 14.9844 111.211 15.2188C111.133 15.4531 111.042 15.6875 110.938 15.9219C110.833 16.1302 110.677 16.3125 110.469 16.4688C110.469 16.5729 110.456 16.6771 110.43 16.7812C110.43 16.8854 110.43 16.9766 110.43 17.0547C110.43 17.4193 110.469 17.7969 110.547 18.1875C110.651 18.5521 110.716 18.9167 110.742 19.2812C111.263 20.1927 111.875 21.026 112.578 21.7812C113.281 22.5104 114.036 23.1875 114.844 23.8125C115.651 24.4375 116.484 25.0234 117.344 25.5703C118.229 26.1172 119.102 26.651 119.961 27.1719C120.273 27.1458 120.56 27.1849 120.82 27.2891C121.081 27.3672 121.354 27.4193 121.641 27.4453C121.953 27.6797 122.318 27.862 122.734 27.9922L123.984 28.3828C124.401 28.513 124.805 28.6693 125.195 28.8516C125.586 29.0078 125.911 29.2292 126.172 29.5156C126.302 29.5417 126.419 29.5807 126.523 29.6328C126.628 29.6589 126.745 29.6719 126.875 29.6719C127.031 29.6719 127.122 29.6198 127.148 29.5156C128.32 29.9583 129.466 30.4531 130.586 31C131.706 31.5208 132.891 31.9245 134.141 32.2109C134.635 32.6276 135.182 32.9922 135.781 33.3047C136.38 33.6172 136.979 33.9427 137.578 34.2812C138.177 34.5938 138.75 34.9453 139.297 35.3359C139.844 35.7005 140.326 36.1432 140.742 36.6641C140.794 37.1589 140.898 37.6406 141.055 38.1094C141.237 38.5521 141.328 39.0339 141.328 39.5547Z" fill="black"/>
</svg>
