<svg width="251" height="251" viewBox="0 0 251 251" fill="none" xmlns="http://www.w3.org/2000/svg">
<circle cx="125.5" cy="125.5" r="125.5" fill="#F32D2D" fill-opacity="0.65"/>
<path width="216" height="216" transform="translate(17.5, 17.5)" d="M216 108C216 167.647 167.647 216 108 216C48.3532 216 0 167.647 0 108C0 48.3532 48.3532 0 108 0C167.647 0 216 48.3532 216 108Z" fill="#F32D2D"/>

<path width="128" height="51" transform="translate(61.5, 100)" d="M18.9937 50.7075C15.3774 50.7075 12.0869 50.3032 9.12207 49.4946C6.15723 48.686 3.2373 47.2822 0.362305 45.2832V33.4238H7.97656L9.021 40.3979C10.0317 41.2515 11.4243 41.9478 13.1987 42.4868C14.9731 43.0034 16.9048 43.2617 18.9937 43.2617C20.7681 43.2617 22.2617 43.0146 23.4746 42.5205C24.71 42.0264 25.6421 41.3301 26.271 40.4316C26.9224 39.5107 27.248 38.4326 27.248 37.1973C27.248 36.0293 26.9561 34.9961 26.3721 34.0977C25.8105 33.1768 24.8672 32.3457 23.542 31.6045C22.2393 30.8408 20.4648 30.1108 18.2188 29.4146C14.333 28.269 11.1099 27.0225 8.54932 25.6748C6.01123 24.3047 4.10205 22.6763 2.82178 20.7896C1.56396 18.8804 0.935059 16.5894 0.935059 13.9165C0.935059 11.2661 1.66504 8.93018 3.125 6.90869C4.60742 4.86475 6.65137 3.25879 9.25684 2.09082C11.8623 0.922852 14.8721 0.316406 18.2861 0.271484C22.0596 0.226563 25.395 0.675781 28.2925 1.61914C31.2124 2.5625 33.728 3.87646 35.8394 5.56104V16.6118H28.4609L27.1807 9.87354C26.3271 9.33447 25.1704 8.86279 23.7104 8.4585C22.2729 8.0542 20.6333 7.85205 18.7915 7.85205C17.2192 7.85205 15.8267 8.08789 14.6138 8.55957C13.4233 9.03125 12.48 9.71631 11.7837 10.6147C11.0874 11.5132 10.7393 12.6025 10.7393 13.8828C10.7393 14.9834 11.0425 15.9492 11.6489 16.7803C12.2554 17.5889 13.2661 18.3638 14.6812 19.105C16.1187 19.8237 18.0952 20.5986 20.6108 21.4297C26.0239 22.9346 30.123 24.9224 32.9082 27.3931C35.7158 29.8638 37.1196 33.1094 37.1196 37.1299C37.1196 39.915 36.3672 42.3296 34.8623 44.3735C33.3574 46.395 31.2461 47.9561 28.5283 49.0566C25.8105 50.1572 22.6323 50.7075 18.9937 50.7075ZM63.5 50.7075C60.1982 50.7075 57.1885 50.0898 54.4707 48.8545C51.7529 47.6191 49.4058 45.8896 47.4292 43.666C45.4751 41.4199 43.9702 38.792 42.9146 35.7822C41.8589 32.75 41.3311 29.437 41.3311 25.8433V25.1021C41.3311 21.5308 41.8589 18.2402 42.9146 15.2305C43.9702 12.1982 45.4751 9.55908 47.4292 7.31299C49.3833 5.06689 51.7192 3.32617 54.437 2.09082C57.1548 0.855469 60.1646 0.237793 63.4663 0.237793C66.7905 0.237793 69.8228 0.855469 72.563 2.09082C75.3032 3.32617 77.6616 5.06689 79.6382 7.31299C81.6147 9.55908 83.1309 12.1982 84.1865 15.2305C85.2646 18.2402 85.8037 21.5308 85.8037 25.1021V25.8433C85.8037 29.437 85.2646 32.75 84.1865 35.7822C83.1309 38.792 81.6147 41.4199 79.6382 43.666C77.6616 45.8896 75.3032 47.6191 72.563 48.8545C69.8452 50.0898 66.8242 50.7075 63.5 50.7075ZM63.5 43.0596C66.2852 43.0596 68.5986 42.3408 70.4404 40.9033C72.2822 39.4658 73.6636 37.4556 74.5845 34.8726C75.5278 32.2896 75.9995 29.2798 75.9995 25.8433V25.0347C75.9995 21.6431 75.5278 18.667 74.5845 16.1064C73.6411 13.5234 72.2373 11.5132 70.373 10.0757C68.5312 8.63818 66.229 7.91943 63.4663 7.91943C60.7261 7.91943 58.4463 8.63818 56.627 10.0757C54.8076 11.4907 53.4375 13.4785 52.5166 16.0391C51.6182 18.5996 51.1689 21.5981 51.1689 25.0347V25.8433C51.1689 29.2798 51.6182 32.2896 52.5166 34.8726C53.4375 37.4556 54.8076 39.4658 56.627 40.9033C58.4688 42.3408 60.7598 43.0596 63.5 43.0596ZM109.758 50.7075C106.142 50.7075 102.852 50.3032 99.8867 49.4946C96.9219 48.686 94.002 47.2822 91.127 45.2832V33.4238H98.7412L99.7856 40.3979C100.796 41.2515 102.189 41.9478 103.963 42.4868C105.738 43.0034 107.669 43.2617 109.758 43.2617C111.533 43.2617 113.026 43.0146 114.239 42.5205C115.475 42.0264 116.407 41.3301 117.036 40.4316C117.687 39.5107 118.013 38.4326 118.013 37.1973C118.013 36.0293 117.721 34.9961 117.137 34.0977C116.575 33.1768 115.632 32.3457 114.307 31.6045C113.004 30.8408 111.229 30.1108 108.983 29.4146C105.098 28.269 101.875 27.0225 99.314 25.6748C96.7759 24.3047 94.8667 22.6763 93.5864 20.7896C92.3286 18.8804 91.6997 16.5894 91.6997 13.9165C91.6997 11.2661 92.4297 8.93018 93.8896 6.90869C95.3721 4.86475 97.416 3.25879 100.021 2.09082C102.627 0.922852 105.637 0.316406 109.051 0.271484C112.824 0.226563 116.16 0.675781 119.057 1.61914C121.977 2.5625 124.493 3.87646 126.604 5.56104V16.6118H119.226L117.945 9.87354C117.092 9.33447 115.935 8.86279 114.475 8.4585C113.038 8.0542 111.398 7.85205 109.556 7.85205C107.984 7.85205 106.591 8.08789 105.378 8.55957C104.188 9.03125 103.245 9.71631 102.548 10.6147C101.852 11.5132 101.504 12.6025 101.504 13.8828C101.504 14.9834 101.807 15.9492 102.414 16.7803C103.02 17.5889 104.031 18.3638 105.446 19.105C106.883 19.8237 108.86 20.5986 111.375 21.4297C116.789 22.9346 120.888 24.9224 123.673 27.3931C126.48 29.8638 127.884 33.1094 127.884 37.1299C127.884 39.915 127.132 42.3296 125.627 44.3735C124.122 46.395 122.011 47.9561 119.293 49.0566C116.575 50.1572 113.397 50.7075 109.758 50.7075Z" fill="white"/>
</svg>
